<?xml version="1.0" standalone="no"?>
<!DOCTYPE svg PUBLIC "-//W3C//DTD SVG 20010904//EN"
 "http://www.w3.org/TR/2001/REC-SVG-20010904/DTD/svg10.dtd">
<svg version="1.0" xmlns="http://www.w3.org/2000/svg"
 width="226.000000pt" height="223.000000pt" viewBox="0 0 226.000000 223.000000"
 preserveAspectRatio="xMidYMid meet">

<g transform="translate(0.000000,223.000000) scale(0.100000,-0.100000)"
fill="#000000" stroke="none">
<path d="M1121 2152 c-1 -7 6 -15 14 -18 16 -7 21 -54 6 -54 -17 0 -41 -31
-41 -52 0 -12 -8 -31 -17 -42 -18 -21 -18 -21 5 -2 12 11 22 29 22 41 0 29 23
47 51 43 17 -2 25 -13 32 -38 4 -19 15 -42 24 -50 13 -13 13 -11 -1 17 -9 18
-16 39 -16 47 0 9 -9 21 -20 28 -25 16 -26 45 -3 72 10 12 11 15 3 9 -8 -7
-22 -13 -31 -13 -10 0 -20 6 -22 13 -4 9 -6 9 -6 -1z"/>
<path d="M1083 1933 c43 -2 110 -2 150 0 40 1 5 3 -78 3 -82 0 -115 -2 -72 -3z"/>
<path d="M994 1864 c-8 -20 -14 -40 -12 -45 2 -5 10 11 19 36 20 54 14 60 -7
9z"/>
<path d="M1288 1885 c5 -11 12 -27 15 -35 5 -13 6 -13 6 1 1 8 -6 24 -15 35
-15 19 -15 19 -6 -1z"/>
<path d="M995 1778 c5 -28 5 -28 -45 -28 -41 0 -50 -3 -49 -17 0 -11 3 -13 6
-5 3 9 62 12 243 12 181 0 240 -3 243 -12 3 -8 6 -6 6 5 1 14 -8 17 -49 17
-50 0 -50 0 -44 28 l6 27 -14 -25 c-13 -25 -16 -25 -150 -28 l-136 -3 -11 28
-11 28 5 -27z"/>
<path d="M838 1663 c-79 -36 -76 -53 10 -54 37 -1 77 0 90 1 22 1 22 -1 22
-110 l0 -112 -24 4 c-14 3 -31 1 -38 -3 -8 -5 9 -8 42 -8 30 0 49 3 43 6 -18
7 -16 31 6 80 25 53 83 93 153 103 47 7 49 8 15 9 -66 2 -131 -34 -168 -94
l-19 -30 0 78 0 77 210 0 210 0 0 -110 0 -110 -25 0 c-22 0 -25 4 -25 40 0 22
-4 40 -8 40 -5 0 -15 12 -22 26 -13 24 -86 74 -106 74 -5 -1 5 -8 21 -17 63
-33 105 -88 105 -137 0 -13 -6 -27 -12 -29 -7 -3 10 -6 37 -6 l50 -1 -3 115
-3 115 65 0 c87 0 88 19 1 54 -65 26 -68 26 -318 25 -248 -1 -253 -1 -309 -26z
m102 -13 c-30 -25 -44 -29 -92 -30 -32 0 -58 2 -58 5 0 13 109 53 145 54 l39
1 -34 -30z m105 0 c-14 -28 -19 -30 -72 -30 l-57 0 34 30 c25 21 46 29 73 30
l38 0 -16 -30z m95 0 c0 -29 -1 -30 -51 -30 l-50 0 18 30 c14 24 24 30 50 30
30 0 33 -3 33 -30z m103 0 l18 -30 -55 0 c-56 0 -56 0 -56 30 0 28 2 30 38 30
31 0 41 -5 55 -30z m102 0 l38 -30 -55 0 c-48 0 -58 3 -72 25 -22 33 -21 35
18 35 22 0 46 -10 71 -30z m107 9 c79 -31 81 -39 8 -39 -57 1 -69 4 -100 30
l-35 29 37 1 c21 0 61 -9 90 -21z"/>
<path d="M898 1353 c9 -3 12 -42 12 -144 l0 -139 -25 0 c-20 0 -25 -5 -25 -25
0 -23 -4 -25 -45 -25 -43 0 -45 -1 -45 -30 l0 -30 -217 -3 c-120 -1 151 -2
602 -2 451 0 720 1 598 2 l-223 3 0 30 c0 29 -2 30 -45 30 -41 0 -45 2 -45 25
0 20 -5 25 -25 25 l-25 0 0 139 c0 102 3 141 13 144 6 3 -8 5 -33 5 -25 0 -39
-2 -32 -5 9 -3 12 -42 12 -144 l0 -139 -215 0 -215 0 0 141 c0 134 1 141 19
136 10 -2 25 -1 32 4 9 6 -4 8 -36 8 -27 0 -44 -3 -37 -6z m482 -143 c0 -87
-4 -140 -10 -140 -6 0 -10 53 -10 140 0 87 4 140 10 140 6 0 10 -53 10 -140z
m50 -170 c0 -20 -7 -20 -280 -20 -273 0 -280 0 -280 20 0 20 7 20 280 20 273
0 280 0 280 -20z m-430 -55 l0 -25 -110 0 -110 0 0 25 0 25 110 0 110 0 0 -25z
m310 0 l0 -25 -150 0 -150 0 0 25 0 25 150 0 150 0 0 -25z m210 0 l0 -25 -100
0 -100 0 0 25 0 25 100 0 100 0 0 -25z"/>
<path d="M87 793 c-4 -3 -7 -13 -7 -22 1 -14 2 -14 14 2 7 9 25 17 40 17 26 0
26 -1 26 -70 0 -55 -3 -71 -17 -79 -14 -8 -7 -10 32 -10 39 0 46 2 33 10 -15
8 -18 24 -18 79 0 67 1 70 24 70 13 0 29 -7 36 -15 15 -19 23 -14 14 9 -5 13
-21 16 -88 16 -46 0 -86 -3 -89 -7z"/>
<path d="M298 788 c18 -18 15 -123 -4 -142 -14 -15 -12 -16 18 -16 33 0 33 1
30 40 l-4 40 41 0 c35 0 41 -3 41 -21 0 -11 -5 -29 -10 -40 -9 -17 -7 -19 17
-19 l28 0 0 85 0 85 -29 0 c-23 0 -27 -3 -18 -12 7 -7 12 -25 12 -40 0 -26 -3
-28 -41 -28 l-41 0 4 40 c3 39 2 40 -26 40 -23 0 -27 -3 -18 -12z"/>
<path d="M508 788 c14 -14 16 -80 3 -126 l-10 -32 69 0 c60 0 68 2 73 21 5 19
4 20 -12 5 -10 -9 -32 -16 -49 -16 l-32 0 0 75 c0 75 0 75 27 75 14 0 34 -7
44 -16 16 -15 17 -14 12 5 -5 19 -13 21 -71 21 -51 0 -63 -3 -54 -12z"/>
<path d="M779 787 c-23 -17 -39 -52 -39 -82 0 -28 40 -75 65 -75 12 0 11 4 -5
20 -14 14 -20 33 -20 65 0 32 6 51 20 65 22 22 6 27 -21 7z"/>
<path d="M856 786 c28 -21 28 -121 0 -142 -11 -8 -14 -14 -7 -14 7 0 26 14 43
30 26 27 30 36 25 68 -7 38 -37 72 -65 72 -13 0 -12 -3 4 -14z"/>
<path d="M960 774 c15 -40 12 -110 -6 -128 -14 -15 -11 -16 28 -15 24 0 37 3
31 6 -9 3 -13 30 -13 84 0 77 -1 79 -25 79 -22 0 -24 -2 -15 -26z"/>
<path d="M1038 788 c16 -16 15 -43 -2 -57 -12 -10 -12 -16 0 -39 8 -15 14 -35
14 -44 0 -14 8 -18 33 -18 26 1 29 2 15 11 -10 5 -18 19 -18 29 0 10 -9 25
-21 33 l-21 15 21 7 c43 13 33 75 -12 75 -16 0 -18 -3 -9 -12z"/>
<path d="M1196 784 c-3 -8 1 -28 9 -44 20 -38 20 -38 -17 -43 l-33 -4 37 -1
c28 -2 38 -7 43 -23 5 -14 2 -25 -6 -30 -9 -6 -1 -9 25 -9 29 0 36 3 29 13 -6
6 -23 45 -38 85 -29 73 -38 84 -49 56z"/>
<path d="M1332 782 c7 -10 41 -50 76 -88 57 -64 62 -67 62 -42 0 33 -103 148
-132 148 -17 0 -17 -2 -6 -18z"/>
<path d="M1456 785 c4 -8 7 -15 9 -15 1 0 8 7 15 15 10 13 9 15 -8 15 -15 0
-20 -5 -16 -15z"/>
<path d="M1552 780 c-44 -41 -36 -116 14 -139 37 -17 49 -13 24 7 -13 10 -23
33 -27 59 -5 35 -2 45 20 67 22 22 23 26 8 26 -9 0 -27 -9 -39 -20z"/>
<path d="M1660 782 c14 -11 27 -16 29 -11 4 13 2 15 -29 24 l-25 8 25 -21z"/>
<path d="M1748 794 c16 -8 16 -136 0 -152 -10 -10 2 -12 62 -10 65 3 75 6 78
22 4 18 3 19 -13 3 -9 -9 -32 -17 -51 -17 l-34 0 0 75 c0 75 0 75 27 75 14 0
35 -8 46 -17 19 -17 19 -17 16 2 -4 17 -13 20 -74 22 -39 1 -64 0 -57 -3z"/>
<path d="M1928 724 c3 -56 0 -79 -10 -85 -8 -6 3 -9 31 -9 38 0 42 2 28 13
-14 10 -17 26 -15 85 3 66 1 72 -17 72 -19 0 -20 -6 -17 -76z"/>
<path d="M2003 789 c22 -13 22 -34 -2 -58 -16 -16 -17 -20 -5 -25 8 -3 14 -14
14 -25 0 -38 11 -51 44 -50 17 0 25 3 18 6 -7 3 -19 20 -27 39 -8 19 -20 34
-27 34 -7 0 -2 7 10 16 40 28 24 75 -26 74 -15 -1 -15 -2 1 -11z"/>
<path d="M2110 786 c-22 -28 -8 -60 38 -80 42 -20 53 -41 30 -64 -7 -7 -8 -12
-2 -12 6 0 19 9 29 20 26 29 11 70 -32 84 -46 16 -59 31 -43 51 7 8 8 15 2 15
-5 0 -15 -7 -22 -14z"/>
<path d="M2187 780 c19 -22 26 -21 17 4 -3 9 -12 16 -20 16 -11 0 -10 -4 3
-20z"/>
<path d="M579 731 c-15 -17 -15 -19 0 -28 13 -8 16 -5 17 19 1 15 1 28 0 27
-1 0 -8 -9 -17 -18z"/>
<path d="M1822 728 c-7 -9 -6 -17 4 -26 12 -11 14 -9 14 13 0 28 -3 30 -18 13z"/>
<path d="M1648 703 c18 -7 15 -50 -5 -62 -15 -9 -15 -10 -2 -11 24 0 46 22 51
53 5 25 3 27 -26 26 -17 0 -25 -3 -18 -6z"/>
<path d="M2100 660 c0 -20 5 -25 27 -27 22 -1 24 1 10 8 -9 5 -21 17 -26 27
-9 15 -10 14 -11 -8z"/>
<path d="M1138 649 c-17 -18 -17 -19 6 -19 19 0 23 4 19 20 -3 11 -6 20 -7 19
0 0 -9 -9 -18 -20z"/>
<path d="M1332 644 c-11 -12 -8 -14 19 -14 18 0 30 1 28 3 -2 1 -11 8 -19 14
-11 8 -18 8 -28 -3z"/>
<path d="M605 505 c-17 -16 -25 -35 -25 -60 0 -39 36 -85 66 -85 15 0 15 3 -4
23 -33 35 -30 99 4 126 26 20 26 21 5 21 -12 0 -33 -11 -46 -25z"/>
<path d="M705 519 c11 -7 25 -20 32 -28 11 -14 12 -13 13 7 0 12 -6 22 -14 22
-8 0 -23 3 -33 6 -15 5 -15 4 2 -7z"/>
<path d="M857 511 c-2 -11 -1 -23 3 -28 4 -4 11 -18 15 -30 6 -20 3 -23 -24
-23 -17 0 -31 -4 -31 -8 0 -4 15 -6 34 -4 28 3 35 0 41 -17 3 -11 3 -25 0 -31
-4 -6 7 -10 26 -10 24 0 29 3 22 13 -6 6 -23 45 -38 85 -29 74 -39 86 -48 53z"/>
<path d="M988 523 c8 -3 12 -29 12 -78 0 -49 -4 -75 -12 -78 -7 -3 5 -6 27 -6
25 0 35 2 27 8 -10 6 -13 29 -10 85 l3 76 -30 -1 c-16 0 -24 -3 -17 -6z"/>
<path d="M1074 515 c17 -17 11 -43 -13 -62 -22 -17 -6 -16 29 2 44 23 35 75
-13 75 -17 0 -17 -2 -3 -15z"/>
<path d="M1188 466 c2 -36 -1 -72 -7 -85 -11 -20 -9 -21 26 -21 25 0 33 3 25
9 -10 6 -13 29 -10 85 3 71 2 76 -17 76 -19 0 -21 -5 -17 -64z"/>
<path d="M1263 523 c21 -6 47 -53 47 -88 0 -14 -11 -37 -25 -50 -20 -21 -21
-25 -7 -25 41 1 77 55 67 100 -8 35 -49 70 -79 69 -17 -1 -18 -2 -3 -6z"/>
<path d="M1388 523 c16 -6 16 -135 0 -151 -10 -10 2 -12 62 -10 66 3 75 5 78
23 2 18 2 18 -8 3 -8 -12 -24 -18 -50 -18 l-40 0 0 75 0 75 29 0 c16 0 34 -7
41 -15 15 -19 23 -14 14 9 -5 13 -20 16 -73 15 -36 0 -60 -3 -53 -6z"/>
<path d="M1564 514 c20 -20 23 -140 4 -147 -7 -3 1 -5 17 -5 17 0 24 2 18 5
-8 3 -13 25 -13 59 l0 55 60 -63 59 -63 1 82 c0 55 4 83 13 86 6 3 -1 6 -17 6
-23 1 -27 -2 -18 -11 7 -7 12 -32 12 -57 l-1 -46 -54 58 c-33 34 -62 57 -75
57 -20 0 -20 -1 -6 -16z"/>
<path d="M1456 455 c-16 -12 -17 -15 -4 -15 9 0 19 -6 21 -12 3 -7 6 -1 6 15
1 31 2 31 -23 12z"/>
<path d="M703 429 c21 -12 22 -33 1 -53 -18 -18 -15 -20 19 -7 17 7 26 19 29
40 4 30 3 31 -31 31 -29 -1 -33 -2 -18 -11z"/>
<path d="M1076 413 c10 -50 13 -53 41 -52 15 0 23 3 16 5 -7 3 -17 21 -23 40
-14 42 -43 48 -34 7z"/>
<path d="M802 380 c-11 -17 -10 -20 7 -20 14 0 18 5 14 20 -3 11 -6 20 -7 20
-1 0 -7 -9 -14 -20z"/>
<path d="M990 225 c0 -13 27 -15 180 -15 153 0 180 2 180 15 0 13 -27 15 -180
15 -153 0 -180 -2 -180 -15z"/>
<path d="M743 85 c0 -22 2 -30 4 -17 2 12 2 30 0 40 -3 9 -5 -1 -4 -23z"/>
<path d="M1152 100 c0 -14 2 -19 5 -12 2 6 2 18 0 25 -3 6 -5 1 -5 -13z"/>
<path d="M1563 85 c0 -22 2 -30 4 -17 2 12 2 30 0 40 -3 9 -5 -1 -4 -23z"/>
<path d="M632 75 c0 -16 2 -22 5 -12 2 9 2 23 0 30 -3 6 -5 -1 -5 -18z"/>
<path d="M1015 76 c10 -14 19 -26 22 -26 7 0 -17 39 -28 46 -6 3 -3 -5 6 -20z"/>
<path d="M1348 73 c5 -21 7 -23 10 -9 2 10 0 22 -6 28 -6 6 -7 0 -4 -19z"/>
<path d="M1435 89 c-4 -6 -5 -12 -2 -15 2 -3 7 2 10 11 7 17 1 20 -8 4z"/>
<path d="M1690 95 c0 -5 5 -17 10 -25 5 -8 10 -10 10 -5 0 6 -5 17 -10 25 -5
8 -10 11 -10 5z"/>
<path d="M870 76 c0 -2 7 -7 16 -10 8 -3 12 -2 9 4 -6 10 -25 14 -25 6z"/>
<path d="M1800 76 c0 -2 7 -7 16 -10 8 -3 12 -2 9 4 -6 10 -25 14 -25 6z"/>
</g>
</svg>
